<?xml version="1.0" encoding="UTF-8" standalone="no"?>
<svg xmlns="http://www.w3.org/2000/svg" viewBox="0 0 16 16" version="1.1" width="16" height="16">
    <!-- Blue background -->
    <rect width="16" height="16" fill="#0969da" rx="2"/>
    
    <!-- White icon elements -->
    <path fill="#ffffff" d="M8 0a8 8 0 100 16A8 8 0 008 0zm1.5 13.5v-1.5c0-.55-.45-1-1-1h-1c-.55 0-1 .45-1 1v1.5c-2.5-.5-4.5-2.5-5-5H3c.55 0 1-.45 1-1V6c0-.55-.45-1-1-1H1.5C2 2.5 4 .5 6.5 0H8c2.5.5 4.5 2.5 5 5H11.5c-.55 0-1 .45-1 1v1.5c0 .55.45 1 1 1H13c-.5 2.5-2.5 4.5-5 5z"/>
</svg>